<?xml version="1.0" encoding="utf-8"?>
<!-- Generator: Adobe Illustrator 21.1.0, SVG Export Plug-In . SVG Version: 6.00 Build 0)  -->
<svg version="1.1" id="Layer_1" xmlns="http://www.w3.org/2000/svg" xmlns:xlink="http://www.w3.org/1999/xlink" x="0px" y="0px"
	 viewBox="0 0 3000 1000" style="enable-background:new 0 0 3000 1000;" xml:space="preserve"
	  class="text-white">
<style type="text/css">
	.st0{fill:currentColor;}
</style>
<g>
	<g>
		<path class="st0" d="M260,356c25,0,52.7,3.5,75.6,23.7c24.6,21.6,28.1,50.1,28.1,70c0,36.3-13.8,56.6-24.6,67.8
			c-22.9,23.3-53.1,25.5-73.4,25.5H225v101h-66.5V356H260z M225,488.6h23.8c9.1,0,25-0.4,35.8-10.8c6-6,10.8-16,10.8-28.5
			c0-12.1-4.3-22-10.8-28.1c-9.9-9.5-24.2-10.8-37.1-10.8H225V488.6z"/>
		<path class="st0" d="M541.3,356c36.7,0,59.6,12.1,73.4,25c12.1,11.7,25,32.4,25,64.3c0,18.1-3.9,40.6-22.5,58.7
			c-9.9,9.5-24.2,18.1-40.2,22L665.7,644h-81.2l-77.7-113.6V644h-66.5V356H541.3z M506.8,486.8h15.1c12.1,0,28.5-1.3,39.7-12.5
			c4.7-4.7,10.8-13.8,10.8-28.1c0-16.4-7.8-25-13.4-29.4c-10.8-8.2-28.1-9.1-36.7-9.1h-15.5V486.8z"/>
		<path class="st0" d="M900.4,412.1h-96.3v55.7h91.5V524h-91.5v63.9h96.3V644H737.6V356h162.8V412.1z"/>
		<path class="st0" d="M1079.2,587.9h123.5V644H970l138.2-231.9H992.4V356H1217L1079.2,587.9z"/>
		<path class="st0" d="M1382.2,587.9h123.5V644h-232.8l138.2-231.9h-115.7V356h224.5L1382.2,587.9z"/>
		<path class="st0" d="M1682.8,509.7L1579.6,356h78.6l57.9,89.4L1774,356h78.6l-103.2,153.7V644h-66.5V509.7z"/>
		<path class="st0" d="M2010.2,356c15.5,0,51,0.9,73.4,22c18.6,17.7,20.7,41.9,20.7,54.4c0,11.2-1.7,24.2-9.5,36.7
			c-7.3,12.1-17.3,18.1-24.2,21.2c13.8,2.2,29.4,9.1,39.7,19.4c9.5,9.5,18.6,25.9,18.6,51.4c0,28.9-11.2,47.1-22.5,58.3
			c-23.7,22.9-58.3,24.6-76,24.6h-108.4V356H2010.2z M1987.8,473h10.8c9.1,0,24.2-1.3,33.7-8.2c6-4.3,11.7-13,11.7-25.5
			s-6-20.3-11.2-24.2c-9.5-7.3-22.5-7.3-34.5-7.3h-10.4V473z M1987.8,592.2h16c16.8,0,37.1-0.4,49.2-11.7c6-5.6,9.5-13.8,9.5-24.2
			c0-11.7-4.7-19.4-9.1-23.3c-11.7-10.8-34.1-10.8-47.5-10.8h-18.1V592.2z"/>
		<path class="st0" d="M2466.5,391.4c27.2,26.3,44.9,64.3,44.9,108.8c0,38.4-13.8,77.7-44.9,108c-26.8,25.9-63,42.3-111.4,42.3
			c-54,0-90.7-21.6-112.3-42.3c-27.6-25.9-44.9-64.8-44.9-107.1c0-41.5,18.6-83.3,44.5-109.3c19.4-19.4,55.3-42.3,112.7-42.3
			C2400,349.5,2437.6,363.3,2466.5,391.4z M2291.6,435.4c-12.5,12.1-25.5,33.3-25.5,65.2c0,26.3,8.6,47.5,26.3,64.8
			c18.6,17.7,39.3,23.8,61.8,23.8c29.4,0,50.1-10.8,63.9-24.6c11.2-10.8,25-31.1,25-64.3c0-29.8-12.1-51.8-25-64.8
			c-14.3-13.8-37.1-24.6-63.5-24.6C2329.6,410.8,2307.2,419.9,2291.6,435.4z"/>
		<path class="st0" d="M2659.7,491.1L2570.3,356h79.9l47.5,82l47.5-82h79.9l-89.4,135.2L2841.5,644h-79.9l-63.9-99.8l-63.9,99.8
			h-79.9L2659.7,491.1z"/>
	</g>
</g>
</svg>
